<svg xmlns="http://www.w3.org/2000/svg" width="179" height="50" fill="none"><path fill="#fff" d="M164.629 16.363h3.07v4.712l-.188 2.085h.188q.492-.82 1.406-1.335.937-.54 2.086-.54 2.226 0 3.281 1.313 1.078 1.312 1.078 3.586v6.96h-3.07V26.56q0-1.196-.562-1.805-.563-.633-1.571-.633-.633 0-1.125.282a2.5 2.5 0 0 0-.843.726 3.8 3.8 0 0 0-.516 1.102 5 5 0 0 0-.164 1.312v5.602h-3.07zM163.459 30.215a6.5 6.5 0 0 1-2.11 2.39q-1.336.915-3.351.915a6.6 6.6 0 0 1-2.461-.446 6 6 0 0 1-1.922-1.289 6.2 6.2 0 0 1-1.266-1.922q-.445-1.125-.445-2.46 0-1.336.445-2.461.47-1.125 1.266-1.922a5.7 5.7 0 0 1 1.922-1.266 6.3 6.3 0 0 1 2.461-.469q1.992 0 3.351.915a5.4 5.4 0 0 1 1.992 2.367l-2.812 1.171q-.4-.796-1.031-1.195-.61-.422-1.547-.422-.61 0-1.149.235a3.1 3.1 0 0 0-.961.656 3.1 3.1 0 0 0-.632 1.031q-.235.61-.235 1.36t.235 1.359q.234.61.632 1.031.423.422.961.657.54.234 1.149.234.96 0 1.617-.422.68-.446 1.078-1.266zM151 30.38a6.4 6.4 0 0 1-2.156 2.273q-1.335.867-3.281.867a6.6 6.6 0 0 1-2.438-.446 6 6 0 0 1-1.921-1.289 6 6 0 0 1-1.29-1.922 6.7 6.7 0 0 1-.445-2.46q0-1.242.445-2.344a5.8 5.8 0 0 1 1.243-1.946 5.95 5.95 0 0 1 1.875-1.335 5.85 5.85 0 0 1 2.414-.493q1.383 0 2.461.47 1.077.444 1.804 1.265a5.3 5.3 0 0 1 1.102 1.898q.375 1.103.375 2.39v.282q-.024.141-.024.258a1.4 1.4 0 0 0-.023.258h-8.648q.093.703.375 1.218.304.493.726.844.445.328.961.492.515.141 1.055.141 1.055 0 1.734-.469a3.6 3.6 0 0 0 1.102-1.219zm-2.789-4.454a1.9 1.9 0 0 0-.211-.68 2.1 2.1 0 0 0-.515-.703 2.5 2.5 0 0 0-.844-.539q-.493-.21-1.195-.21-.985 0-1.735.562t-1.054 1.57zM132.979 33.145V19.363h-4.688v-3h12.539v3h-4.687v13.782zM127.596 30.38a6.4 6.4 0 0 1-2.156 2.273q-1.337.867-3.282.867a6.6 6.6 0 0 1-2.437-.446 6 6 0 0 1-1.922-1.289 6 6 0 0 1-1.289-1.922q-.445-1.125-.445-2.46 0-1.242.445-2.344a5.85 5.85 0 0 1 1.242-1.946 5.95 5.95 0 0 1 1.875-1.335 5.85 5.85 0 0 1 2.414-.493q1.383 0 2.461.47a4.84 4.84 0 0 1 1.805 1.265 5.3 5.3 0 0 1 1.101 1.898q.375 1.103.375 2.39v.282q-.023.141-.023.258a1.3 1.3 0 0 0-.024.258h-8.648q.094.703.375 1.218.304.493.727.844.445.328.961.492.515.141 1.054.141 1.054 0 1.735-.469a3.6 3.6 0 0 0 1.101-1.219zm-2.789-4.454a1.9 1.9 0 0 0-.211-.68 2.15 2.15 0 0 0-.516-.703 2.5 2.5 0 0 0-.844-.539q-.492-.21-1.195-.21-.984 0-1.734.562t-1.055 1.57zM108.589 21.66h2.883v1.594h.187q.212-.422.563-.773t.773-.61q.446-.257.938-.398.516-.14 1.008-.14a4 4 0 0 1 1.031.117q.445.117.75.304l-.82 2.79a2.5 2.5 0 0 0-.633-.212 3 3 0 0 0-.82-.094q-.633 0-1.149.258a2.5 2.5 0 0 0-.891.68 3.6 3.6 0 0 0-.562 1.055q-.188.585-.188 1.289v5.625h-3.07zM103.779 31.645h-.187a4 4 0 0 1-1.453 1.383q-.915.492-2.086.492-2.18 0-3.258-1.336-1.055-1.335-1.055-3.563v-6.96h3.07v6.585q0 1.243.54 1.852.562.586 1.617.586.633 0 1.101-.258.493-.281.821-.726.351-.469.515-1.079.188-.632.188-1.336V21.66h3.07v11.485h-2.883zM88.396 24.285H86.38V21.66h2.016v-3.515h3.07v3.515h2.813v2.625h-2.813v4.453q0 .399.07.75.094.33.329.563.327.375.937.375.398 0 .633-.07a2.4 2.4 0 0 0 .445-.235l.867 2.696q-.54.258-1.172.375a6 6 0 0 1-1.359.14 4.5 4.5 0 0 1-1.57-.258 3.5 3.5 0 0 1-1.149-.75q-1.101-1.054-1.101-3zM82.206 31.645h-.188a4 4 0 0 1-1.453 1.383q-.915.492-2.086.492-2.18 0-3.257-1.336-1.055-1.335-1.055-3.563v-6.96h3.07v6.585q0 1.243.54 1.852.561.586 1.616.586.633 0 1.102-.258.493-.281.82-.726.352-.469.516-1.079.187-.632.187-1.336V21.66h3.07v11.485h-2.882zM62.727 16.363h10.64v3h-7.476v4.079h6.727v3H65.89v6.703h-3.164z"/><path fill="#ffd11a" d="M33.333 50v-8.333a8.32 8.32 0 0 0 8.334-8.334H50C50 42.556 42.528 50 33.333 50M33.333 50v-8.333A8.32 8.32 0 0 1 25 33.333h-8.333C16.667 42.556 24.139 50 33.333 50M0 33.334h8.333a8.32 8.32 0 0 0 8.334 8.333V50C7.472 50 0 42.556 0 33.334M0 33.333h8.333A8.32 8.32 0 0 1 16.667 25v-8.333C7.472 16.667 0 24.139 0 33.333M16.667 0v8.333a8.32 8.32 0 0 0-8.334 8.334H0C0 7.472 7.472 0 16.667 0M16.667 0v8.333A8.32 8.32 0 0 1 25 16.667h8.333C33.333 7.472 25.861 0 16.667 0M50 16.667h-8.333a8.32 8.32 0 0 0-8.334-8.334V0C42.528 0 50 7.472 50 16.667M50 16.667h-8.333A8.32 8.32 0 0 1 33.333 25v8.333C42.528 33.333 50 25.89 50 16.667"/></svg>